<svg width="256" height="256" viewBox="0 0 256 256" fill="none" xmlns="http://www.w3.org/2000/svg">
    <path
        d="M252.17 158.964C235.073 227.536 165.613 269.268 97.0246 252.168C28.4654 235.073 -13.2709 165.616 3.83384 97.0495C20.9236 28.4698 90.3839 -13.2649 158.951 3.83038C227.534 20.9257 269.267 90.39 252.168 158.965L252.17 158.964H252.17Z"
        fill="#F7931A" />
    <path
        d="M184.449 109.763C186.997 92.7293 174.027 83.5729 156.291 77.4647L162.045 54.3906L147.997 50.8907L142.396 73.3572C138.703 72.4363 134.911 71.5685 131.141 70.7082L136.783 48.0934L122.744 44.5935L116.988 67.6601C113.931 66.9643 110.93 66.2767 108.018 65.5522L108.034 65.4797L88.6623 60.6427L84.9255 75.6446C84.9255 75.6446 95.3475 78.0334 95.1279 78.1804C100.816 79.6 101.845 83.3652 101.674 86.3495L95.1204 112.636C95.5121 112.736 96.0202 112.88 96.5808 113.105C96.1122 112.989 95.6135 112.862 95.096 112.738L85.9097 149.562C85.2146 151.29 83.45 153.883 79.4729 152.898C79.6137 153.102 69.263 150.351 69.263 150.351L62.2887 166.429L80.5692 170.985C83.97 171.838 87.3026 172.73 90.5845 173.569L84.7716 196.908L98.8028 200.408L104.559 177.317C108.393 178.357 112.113 179.317 115.754 180.222L110.017 203.204L124.065 206.704L129.877 183.409C153.831 187.942 171.843 186.114 179.424 164.45C185.533 147.008 179.12 136.948 166.518 130.387C175.697 128.271 182.61 122.234 184.454 109.765L184.449 109.762L184.449 109.763ZM152.353 154.764C148.012 172.206 118.642 162.777 109.12 160.413L116.834 129.493C126.355 131.87 156.891 136.574 152.354 154.764H152.353ZM156.698 109.511C152.738 125.376 128.292 117.316 120.363 115.339L127.356 87.2968C135.286 89.2732 160.823 92.9621 156.699 109.511H156.698Z"
        fill="white" />
</svg>